<svg width="512" height="512" viewBox="0 0 512 512" fill="none" xmlns="http://www.w3.org/2000/svg">
<path d="M256 0C247.716 0 241 6.716 241 15C241 23.284 247.716 30 256 30C380.617 30 482 131.383 482 256C482 380.617 380.617 482 256 482C131.383 482 30 380.617 30 256C30 195.643 55.37 137.368 99.017 94.964V121C99.017 129.284 105.733 136 114.017 136C122.301 136 129 129.284 129 121V61C129 52.716 122.301 46 114.017 46H53.5C45.216 46 38.5 52.716 38.5 61C38.5 69.284 45.216 75.9 53.5 75.9H75.512C27.008 124.322 0 189.079 0 256C0 396.74 115.209 512 256 512C396.74 512 512 396.791 512 256C512 115.26 396.791 0 256 0Z" fill="black"/>
<path d="M256 91C165.025 91 91 165.049 91 256C91 346.981 165.055 421 256 421C346.975 421 421 346.951 421 256C421 165.019 346.945 91 256 91ZM361.429 340.216L351.46 330.246C345.603 324.388 336.105 324.388 330.247 330.246C324.389 336.104 324.389 345.601 330.247 351.459L340.217 361.429C320.792 376.976 297 387.274 271 390.162V376C271 367.716 264.284 361 256 361C247.716 361 241 367.716 241 376V390.162C215 387.274 191.208 376.976 171.784 361.429L181.754 351.459C187.612 345.601 187.612 336.104 181.754 330.246C175.897 324.388 166.399 324.388 160.541 330.246L150.571 340.216C135.024 320.792 124.725 297 121.838 271H136C144.284 271 151 264.284 151 256C151 247.716 144.284 241 136 241H121.838C124.726 215 135.024 191.208 150.571 171.784L160.541 181.754C166.398 187.612 175.897 187.612 181.754 181.754C187.612 175.896 187.612 166.399 181.754 160.541L171.784 150.571C191.208 135.024 215 124.726 241 121.838V136C241 144.284 247.716 151 256 151C264.284 151 271 144.284 271 136V121.838C297 124.726 320.792 135.024 340.216 150.571L330.246 160.541C324.388 166.399 324.388 175.896 330.246 181.754C336.103 187.612 345.602 187.612 351.459 181.754L361.428 171.784C376.976 191.208 387.275 215 390.162 241H376C367.716 241 361 247.716 361 256C361 264.284 367.716 270.9 376 270.9H390.162C387.274 296.9 376.976 320.792 361.429 340.216Z" fill="black"/>
<path d="M296.607 275.393L271 249.787V196C271 187.716 264.284 181 256 181C247.716 181 241 187.716 241 196V256C241 259.978 242.581 263.793 245.394 266.606L275.394 296.606C281.251 302.464 290.75 302.464 296.607 296.606C302.465 290.748 302.465 281.251 296.607 275.393Z" fill="black"/>
</svg>
